<svg width="16" height="17" viewBox="0 0 16 17" fill="none" xmlns="http://www.w3.org/2000/svg">
<path d="M8 0.167908C3.58065 0.167908 0 3.74855 0 8.16791C0 12.5873 3.58065 16.1679 8 16.1679C12.4194 16.1679 16 12.5873 16 8.16791C16 3.74855 12.4194 0.167908 8 0.167908ZM9.84194 11.4615L6.99677 9.39371C6.89677 9.31952 6.83871 9.20339 6.83871 9.08081V3.65178C6.83871 3.43888 7.0129 3.26468 7.22581 3.26468H8.77419C8.9871 3.26468 9.16129 3.43888 9.16129 3.65178V8.09371L11.2097 9.58404C11.3839 9.70984 11.4194 9.95178 11.2935 10.126L10.3839 11.3776C10.2581 11.5486 10.0161 11.5873 9.84194 11.4615Z" fill="white" fill-opacity="0.8"/>
</svg>
