<svg width="16" height="17" viewBox="0 0 16 17" fill="none" xmlns="http://www.w3.org/2000/svg">
<path d="M1.2 0.167908C0.53825 0.167908 0 0.84072 0 1.66791V3.66791C0 3.94416 0.179 4.16791 0.4 4.16791H2.4V1.66791C2.4 0.84072 1.86175 0.167908 1.2 0.167908ZM6.4 13.0607V11.1679H13.6V3.16791C13.6 1.51353 12.5235 0.167908 11.2 0.167908H2.78975C3.0435 0.58697 3.2 1.10291 3.2 1.66791V13.1679C3.2 14.3826 4.06625 15.3445 5.06875 15.1404C5.8555 14.9804 6.4 14.0573 6.4 13.0607ZM7.2 12.1679V13.1679C7.2 14.822 6.1235 16.1679 4.8 16.1679H13.2C14.7465 16.1679 16 14.601 16 12.6679C16 12.3917 15.821 12.1679 15.6 12.1679H7.2Z" fill="white" fill-opacity="0.8"/>
</svg>
