<svg xmlns="http://www.w3.org/2000/svg" viewBox="35.3636 1.19209e-7 15.19 26.67">
  <path d="M43.4586 0.220813C42.838 -0.186409 42.0041 -0.0147425 41.5969 0.606924C41.1891 1.22748 41.3624 2.06137 41.983 2.46859C45.6647 4.8847 47.8619 8.94637 47.8619 13.3341C47.8619 17.7219 45.6647 21.7836 41.983 24.1997C41.3624 24.6064 41.1891 25.4408 41.5969 26.0608C41.988 26.6558 42.8152 26.8697 43.4586 26.4469C47.8986 23.5325 50.5502 18.6297 50.5502 13.3336C50.5502 8.03748 47.8986 3.13526 43.4586 0.220813ZM45.2169 13.3336C45.2169 9.80415 43.4358 6.55915 40.4519 4.65359C39.8302 4.25692 39.0058 4.44137 38.6119 5.06803C38.218 5.6947 38.4019 6.52415 39.0236 6.92137C41.2319 8.33192 42.5502 10.7286 42.5502 13.3336C42.5502 15.9386 41.2319 18.3353 39.0236 19.7458C38.4019 20.1425 38.218 20.9719 38.6119 21.5991C38.9736 22.1747 39.7852 22.4403 40.4519 22.0136C43.4358 20.108 45.2169 16.8636 45.2169 13.3336ZM37.3408 9.06303C36.6974 8.71137 35.8858 8.94303 35.5291 9.58803C35.1741 10.233 35.4091 11.0436 36.0541 11.3997C36.7713 11.7936 37.2169 12.5353 37.2169 13.3336C37.2169 14.1325 36.7713 14.8736 36.0547 15.2675C35.4097 15.6236 35.1747 16.4341 35.5297 17.0791C35.8869 17.7269 36.6991 17.9569 37.3413 17.6041C38.9097 16.7403 39.8841 15.1041 39.8841 13.333C39.8841 11.5619 38.9097 9.92637 37.3408 9.06303Z" fill="#0075FF"/>
</svg>