<svg width="106" height="27" viewBox="0 0 106 27" fill="none" xmlns="http://www.w3.org/2000/svg">
<path d="M0 8.96464V7.19759H9.28409V8.96464H5.6875V18.834H3.59659V8.96464H0Z" fill="white"/>
<path d="M10.5625 8.96464V7.19759H19.8466V8.96464H16.25V18.834H14.1591V8.96464H10.5625Z" fill="white"/>
<path d="M27.9602 10.3965C27.9072 9.90024 27.6837 9.51388 27.2898 9.23736C26.8996 8.96085 26.392 8.82259 25.767 8.82259C25.3277 8.82259 24.9508 8.88888 24.6364 9.02145C24.322 9.15403 24.0814 9.33395 23.9148 9.56123C23.7481 9.7885 23.6629 10.048 23.6591 10.3396C23.6591 10.5821 23.714 10.7923 23.8239 10.9703C23.9375 11.1483 24.0909 11.2999 24.2841 11.4249C24.4773 11.5461 24.6913 11.6483 24.9261 11.7317C25.161 11.815 25.3977 11.8851 25.6364 11.9419L26.7273 12.2146C27.1667 12.3169 27.589 12.4552 27.9943 12.6294C28.4034 12.8037 28.7689 13.0233 29.0909 13.2885C29.4167 13.5537 29.6742 13.8737 29.8636 14.2487C30.053 14.6237 30.1477 15.0631 30.1477 15.5669C30.1477 16.2487 29.9735 16.8491 29.625 17.368C29.2765 17.8832 28.7727 18.2866 28.1136 18.5783C27.4583 18.8662 26.6648 19.0101 25.733 19.0101C24.8277 19.0101 24.0417 18.8699 23.375 18.5896C22.7121 18.3093 22.1932 17.9002 21.8182 17.3624C21.447 16.8245 21.2462 16.1692 21.2159 15.3965H23.2898C23.3201 15.8018 23.4451 16.1389 23.6648 16.4078C23.8845 16.6768 24.1705 16.8775 24.5227 17.0101C24.8788 17.1427 25.2765 17.209 25.7159 17.209C26.1742 17.209 26.5758 17.1408 26.9205 17.0044C27.2689 16.8643 27.5417 16.6711 27.7386 16.4249C27.9356 16.1749 28.036 15.8832 28.0398 15.5499C28.036 15.2468 27.947 14.9968 27.7727 14.7999C27.5985 14.5991 27.3542 14.4324 27.0398 14.2999C26.7292 14.1635 26.3655 14.0423 25.9489 13.9362L24.625 13.5953C23.6667 13.3491 22.9091 12.976 22.3523 12.476C21.7992 11.9722 21.5227 11.3037 21.5227 10.4703C21.5227 9.78471 21.7083 9.18433 22.0795 8.66918C22.4545 8.15403 22.964 7.75441 23.608 7.47032C24.2519 7.18244 24.9811 7.0385 25.7955 7.0385C26.6212 7.0385 27.3447 7.18244 27.9659 7.47032C28.5909 7.75441 29.0814 8.15024 29.4375 8.65782C29.7936 9.1616 29.9773 9.74115 29.9886 10.3965H27.9602Z" fill="white"/>
<path d="M43.4586 0.220813C42.838 -0.186409 42.0041 -0.0147425 41.5969 0.606924C41.1891 1.22748 41.3624 2.06137 41.983 2.46859C45.6647 4.8847 47.8619 8.94637 47.8619 13.3341C47.8619 17.7219 45.6647 21.7836 41.983 24.1997C41.3624 24.6064 41.1891 25.4408 41.5969 26.0608C41.988 26.6558 42.8152 26.8697 43.4586 26.4469C47.8986 23.5325 50.5502 18.6297 50.5502 13.3336C50.5502 8.03748 47.8986 3.13526 43.4586 0.220813ZM45.2169 13.3336C45.2169 9.80415 43.4358 6.55915 40.4519 4.65359C39.8302 4.25692 39.0058 4.44137 38.6119 5.06803C38.218 5.6947 38.4019 6.52415 39.0236 6.92137C41.2319 8.33192 42.5502 10.7286 42.5502 13.3336C42.5502 15.9386 41.2319 18.3353 39.0236 19.7458C38.4019 20.1425 38.218 20.9719 38.6119 21.5991C38.9736 22.1747 39.7852 22.4403 40.4519 22.0136C43.4358 20.108 45.2169 16.8636 45.2169 13.3336ZM37.3408 9.06303C36.6974 8.71137 35.8858 8.94303 35.5291 9.58803C35.1741 10.233 35.4091 11.0436 36.0541 11.3997C36.7713 11.7936 37.2169 12.5353 37.2169 13.3336C37.2169 14.1325 36.7713 14.8736 36.0547 15.2675C35.4097 15.6236 35.1747 16.4341 35.5297 17.0791C35.8869 17.7269 36.6991 17.9569 37.3413 17.6041C38.9097 16.7403 39.8841 15.1041 39.8841 13.333C39.8841 11.5619 38.9097 9.92637 37.3408 9.06303Z" fill="#0075FF"/>
<path d="M55.6979 18.834V7.19759H57.8059V12.1237H63.1979V7.19759H65.3116V18.834H63.1979V13.8908H57.8059V18.834H55.6979Z" fill="white"/>
<path d="M71.3769 19.0044C70.5019 19.0044 69.7462 18.8226 69.1099 18.459C68.4773 18.0915 67.9906 17.5726 67.6497 16.9021C67.3087 16.2279 67.1383 15.4343 67.1383 14.5215C67.1383 13.6237 67.3087 12.8359 67.6497 12.1578C67.9943 11.476 68.4754 10.9457 69.0928 10.5669C69.7103 10.1843 70.4356 9.99305 71.269 9.99305C71.8069 9.99305 72.3144 10.0802 72.7917 10.2544C73.2728 10.4249 73.697 10.69 74.0644 11.0499C74.4356 11.4097 74.7273 11.868 74.9394 12.4249C75.1515 12.9779 75.2576 13.637 75.2576 14.4021V15.0328H68.1042V13.6465H73.286C73.2822 13.2525 73.197 12.9021 73.0303 12.5953C72.8637 12.2847 72.6307 12.0404 72.3315 11.8624C72.036 11.6843 71.6913 11.5953 71.2974 11.5953C70.8769 11.5953 70.5076 11.6976 70.1894 11.9021C69.8712 12.1029 69.6231 12.368 69.4451 12.6976C69.2709 13.0234 69.1819 13.3813 69.1781 13.7715V14.9817C69.1781 15.4893 69.2709 15.9249 69.4565 16.2885C69.6421 16.6484 69.9015 16.9249 70.2349 17.118C70.5682 17.3074 70.9584 17.4021 71.4053 17.4021C71.7046 17.4021 71.9754 17.3605 72.2178 17.2771C72.4603 17.19 72.6705 17.0631 72.8485 16.8965C73.0265 16.7298 73.161 16.5234 73.2519 16.2771L75.1724 16.493C75.0512 17.0006 74.8201 17.4438 74.4792 17.8226C74.1421 18.1976 73.7103 18.4893 73.1837 18.6976C72.6572 18.9021 72.055 19.0044 71.3769 19.0044Z" fill="white"/>
<path d="M79.0545 7.19759V18.834H76.9977V7.19759H79.0545Z" fill="white"/>
<path d="M81.1695 22.1067V10.1067H83.1923V11.5499H83.3116C83.4176 11.3377 83.5673 11.1124 83.7604 10.8737C83.9536 10.6313 84.215 10.4249 84.5445 10.2544C84.8741 10.0802 85.2945 9.99305 85.8059 9.99305C86.4801 9.99305 87.0881 10.1654 87.6298 10.5101C88.1752 10.851 88.607 11.3567 88.9252 12.0271C89.2472 12.6938 89.4082 13.512 89.4082 14.4817C89.4082 15.44 89.251 16.2544 88.9366 16.9249C88.6222 17.5953 88.1942 18.1067 87.6525 18.459C87.1108 18.8112 86.4972 18.9874 85.8116 18.9874C85.3116 18.9874 84.8968 18.904 84.5673 18.7374C84.2377 18.5707 83.9726 18.3699 83.7718 18.1351C83.5748 17.8965 83.4214 17.6711 83.3116 17.459H83.2264V22.1067H81.1695ZM83.1866 14.4703C83.1866 15.0347 83.2661 15.529 83.4252 15.9533C83.5881 16.3775 83.8211 16.709 84.1241 16.9476C84.4309 17.1824 84.8021 17.2999 85.2377 17.2999C85.6923 17.2999 86.073 17.1787 86.3798 16.9362C86.6866 16.69 86.9176 16.3548 87.0729 15.9305C87.232 15.5025 87.3116 15.0158 87.3116 14.4703C87.3116 13.9287 87.2339 13.4476 87.0786 13.0271C86.9233 12.6067 86.6923 12.2771 86.3854 12.0385C86.0786 11.7999 85.6961 11.6805 85.2377 11.6805C84.7983 11.6805 84.4252 11.7961 84.1184 12.0271C83.8116 12.2582 83.5786 12.5821 83.4195 12.9987C83.2642 13.4154 83.1866 13.9059 83.1866 14.4703Z" fill="white"/>
<path d="M95.0332 19.0044C94.1582 19.0044 93.4025 18.8226 92.7661 18.459C92.1336 18.0915 91.6468 17.5726 91.3059 16.9021C90.965 16.2279 90.7945 15.4343 90.7945 14.5215C90.7945 13.6237 90.965 12.8359 91.3059 12.1578C91.6506 11.476 92.1317 10.9457 92.7491 10.5669C93.3665 10.1843 94.0919 9.99305 94.9252 9.99305C95.4631 9.99305 95.9707 10.0802 96.4479 10.2544C96.929 10.4249 97.3532 10.69 97.7207 11.0499C98.0919 11.4097 98.3836 11.868 98.5957 12.4249C98.8078 12.9779 98.9139 13.637 98.9139 14.4021V15.0328H91.7604V13.6465H96.9423C96.9385 13.2525 96.8533 12.9021 96.6866 12.5953C96.5199 12.2847 96.287 12.0404 95.9877 11.8624C95.6923 11.6843 95.3476 11.5953 94.9536 11.5953C94.5332 11.5953 94.1639 11.6976 93.8457 11.9021C93.5275 12.1029 93.2794 12.368 93.1014 12.6976C92.9271 13.0234 92.8381 13.3813 92.8343 13.7715V14.9817C92.8343 15.4893 92.9271 15.9249 93.1127 16.2885C93.2983 16.6484 93.5578 16.9249 93.8911 17.118C94.2245 17.3074 94.6146 17.4021 95.0616 17.4021C95.3608 17.4021 95.6317 17.3605 95.8741 17.2771C96.1165 17.19 96.3267 17.0631 96.5048 16.8965C96.6828 16.7298 96.8173 16.5234 96.9082 16.2771L98.8286 16.493C98.7074 17.0006 98.4764 17.4438 98.1355 17.8226C97.7983 18.1976 97.3665 18.4893 96.84 18.6976C96.3135 18.9021 95.7112 19.0044 95.0332 19.0044Z" fill="white"/>
<path d="M100.654 18.834V10.1067H102.648V11.5612H102.739C102.898 11.0574 103.171 10.6692 103.557 10.3965C103.947 10.1199 104.393 9.98169 104.893 9.98169C105.006 9.98169 105.133 9.98737 105.273 9.99873C105.417 10.0063 105.536 10.0196 105.631 10.0385V11.9305C105.544 11.9002 105.406 11.8737 105.216 11.851C105.031 11.8245 104.851 11.8112 104.677 11.8112C104.302 11.8112 103.965 11.8927 103.665 12.0555C103.37 12.2146 103.137 12.4362 102.966 12.7203C102.796 13.0044 102.711 13.3321 102.711 13.7033V18.834H100.654Z" fill="white"/>
</svg>
