<svg width="24" height="17" viewBox="0 0 24 17" fill="none" xmlns="http://www.w3.org/2000/svg">
<path d="M22.9023 3.17137C22.6406 2.18595 21.8695 1.40987 20.8905 1.14649C19.1159 0.667908 12 0.667908 12 0.667908C12 0.667908 4.88417 0.667908 3.10954 1.14649C2.1305 1.40991 1.35942 2.18595 1.09771 3.17137C0.622208 4.95749 0.622208 8.68407 0.622208 8.68407C0.622208 8.68407 0.622208 12.4107 1.09771 14.1968C1.35942 15.1822 2.1305 15.9259 3.10954 16.1893C4.88417 16.6679 12 16.6679 12 16.6679C12 16.6679 19.1158 16.6679 20.8905 16.1893C21.8695 15.9259 22.6406 15.1822 22.9023 14.1968C23.3778 12.4107 23.3778 8.68407 23.3778 8.68407C23.3778 8.68407 23.3778 4.95749 22.9023 3.17137ZM9.67271 12.0675V5.30062L15.6202 8.68416L9.67271 12.0675Z" fill="#FF0000"/>
</svg>
